<svg xmlns="http://www.w3.org/2000/svg" viewBox="0 0 64 64" width="64" height="64" role="img" aria-label="Guardar"><defs><linearGradient id="i1f4be_a" x1="0" y1="0" x2="0" y2="1"><stop offset="0" stop-color="#4C8DF6"/><stop offset="1" stop-color="#2563D9"/></linearGradient><linearGradient id="i1f4be_chipbg" x1="0" y1="0" x2="0" y2="1"><stop offset="0" stop-color="#E8F0FE"/><stop offset="1" stop-color="#CFE0FC"/></linearGradient><linearGradient id="i1f4be_chipst" x1="0" y1="0" x2="0" y2="1"><stop offset="0" stop-color="#FFFFFF"/><stop offset="1" stop-color="#B9C4D6"/></linearGradient></defs><rect width="64" height="64" rx="15" fill="url(#i1f4be_chipbg)"/><rect x=".6" y=".6" width="62.8" height="62.8" rx="14.4" fill="none" stroke="url(#i1f4be_chipst)" stroke-width="1.2" opacity=".55"/><g transform="translate(11.2 11.2) scale(0.8667)"><path d="M6 9a4 4 0 0 1 4-4h23.5L43 14.5V38a4 4 0 0 1-4 4H10a4 4 0 0 1-4-4z" fill="url(#i1f4be_a)"/><path d="M15 5h16v11a2 2 0 0 1-2 2H17a2 2 0 0 1-2-2z" fill="#EDF3FF"/><rect x="24" y="7.5" width="4.5" height="8" rx="1.5" fill="#173F91" opacity=".7"/><rect x="13" y="25" width="22" height="17" rx="2.5" fill="#FFFFFF"/><rect x="17" y="29.5" width="14" height="2.6" rx="1.3" fill="#B9CADB"/><rect x="17" y="34.5" width="14" height="2.6" rx="1.3" fill="#D2DEEA"/></g></svg>