<svg xmlns="http://www.w3.org/2000/svg" viewBox="0 0 64 64" width="64" height="64" role="img" aria-label="Configuración"><defs><linearGradient id="i2699_a" x1="0" y1="0" x2="0" y2="1"><stop offset="0" stop-color="#DFE5EF"/><stop offset="1" stop-color="#8A93A6"/></linearGradient><linearGradient id="i2699_b" x1="0" y1="0" x2="0" y2="1"><stop offset="0" stop-color="#4C8DF6"/><stop offset="1" stop-color="#2563D9"/></linearGradient><linearGradient id="i2699_chipbg" x1="0" y1="0" x2="0" y2="1"><stop offset="0" stop-color="#EFF2F7"/><stop offset="1" stop-color="#DCE2EC"/></linearGradient><linearGradient id="i2699_chipst" x1="0" y1="0" x2="0" y2="1"><stop offset="0" stop-color="#FFFFFF"/><stop offset="1" stop-color="#B9C4D6"/></linearGradient></defs><rect width="64" height="64" rx="15" fill="url(#i2699_chipbg)"/><rect x=".6" y=".6" width="62.8" height="62.8" rx="14.4" fill="none" stroke="url(#i2699_chipst)" stroke-width="1.2" opacity=".55"/><g transform="translate(11.2 11.2) scale(0.8667)"><rect x="21" y="1.5" width="6" height="10" rx="2" fill="url(#i2699_a)" transform="rotate(0 24 24)"/><rect x="21" y="1.5" width="6" height="10" rx="2" fill="url(#i2699_a)" transform="rotate(45 24 24)"/><rect x="21" y="1.5" width="6" height="10" rx="2" fill="url(#i2699_a)" transform="rotate(90 24 24)"/><rect x="21" y="1.5" width="6" height="10" rx="2" fill="url(#i2699_a)" transform="rotate(135 24 24)"/><rect x="21" y="1.5" width="6" height="10" rx="2" fill="url(#i2699_a)" transform="rotate(180 24 24)"/><rect x="21" y="1.5" width="6" height="10" rx="2" fill="url(#i2699_a)" transform="rotate(225 24 24)"/><rect x="21" y="1.5" width="6" height="10" rx="2" fill="url(#i2699_a)" transform="rotate(270 24 24)"/><rect x="21" y="1.5" width="6" height="10" rx="2" fill="url(#i2699_a)" transform="rotate(315 24 24)"/><circle cx="24" cy="24" r="16" fill="url(#i2699_a)"/><circle cx="24" cy="24" r="12.5" fill="#FFFFFF" opacity=".35"/><circle cx="24" cy="24" r="7.5" fill="url(#i2699_b)"/></g></svg>