<svg viewBox="0 0 32 32" fill="none" xmlns="http://www.w3.org/2000/svg"><g filter="url(#filter0_ii_18590_2382)"><rect x="2.3" y="1.94" width="27.88" height="27.88" rx="3.6" fill="url(#paint0_linear_18590_2382)"/><rect x="2.3" y="1.94" width="27.88" height="27.88" rx="3.6" fill="url(#paint1_radial_18590_2382)"/></g><g filter="url(#filter1_f_18590_2382)"><path d="M28.49 4.44V27.31" stroke="url(#paint2_linear_18590_2382)" stroke-width="1.5" stroke-linecap="round"/></g><g filter="url(#filter2_f_18590_2382)"><path d="M5.77 3.75H27.55" stroke="url(#paint3_linear_18590_2382)" stroke-width="1.5" stroke-linecap="round"/></g><g filter="url(#filter3_f_18590_2382)"><path d="M14.05 7.71C13.29 7.71 12.67 8.32 12.67 9.08V22.67C12.67 23.43 13.29 24.04 14.05 24.04H17.35C21.9 24.04 25.63 20.41 25.63 15.88C25.63 11.34 21.9 7.71 17.35 7.71H14.05ZM15.52 21.29C15.47 21.29 15.42 21.25 15.42 21.19V10.56C15.42 10.5 15.47 10.46 15.52 10.46H17.35C20.43 10.46 22.88 12.9 22.88 15.88C22.88 18.85 20.43 21.29 17.35 21.29H15.52Z" fill="#6A4EBE"/><path d="M10.43 9.18C10.43 8.42 9.81 7.81 9.05 7.81C8.29 7.81 7.68 8.42 7.68 9.18L7.69 22.57C7.7 23.33 8.31 23.94 9.07 23.94C9.83 23.94 10.45 23.33 10.44 22.57L10.43 9.18Z" fill="#6A4EBE"/></g><g filter="url(#filter4_ii_18590_2382)"><path d="M14.05 7.71C13.29 7.71 12.67 8.32 12.67 9.08V22.67C12.67 23.43 13.29 24.04 14.05 24.04H17.35C21.9 24.04 25.63 20.41 25.63 15.88C25.63 11.34 21.9 7.71 17.35 7.71H14.05ZM15.52 21.29C15.47 21.29 15.42 21.25 15.42 21.19V10.56C15.42 10.5 15.47 10.46 15.52 10.46H17.35C20.43 10.46 22.88 12.9 22.88 15.88C22.88 18.85 20.43 21.29 17.35 21.29H15.52Z" fill="#FCF2FF"/><path d="M10.43 9.18C10.43 8.42 9.81 7.81 9.05 7.81C8.29 7.81 7.68 8.42 7.68 9.18L7.69 22.57C7.7 23.33 8.31 23.94 9.07 23.94C9.83 23.94 10.45 23.33 10.44 22.57L10.43 9.18Z" fill="#FCF2FF"/></g><defs><filter id="filter0_ii_18590_2382" x="2.3" y="0.94" width="29.88" height="28.88" filterUnits="userSpaceOnUse" color-interpolation-filters="sRGB"><feFlood flood-opacity="0" result="BackgroundImageFix"/><feBlend mode="normal" in="SourceGraphic" in2="BackgroundImageFix" result="shape"/><feColorMatrix in="SourceAlpha" type="matrix" values="0 0 0 0 0 0 0 0 0 0 0 0 0 0 0 0 0 0 127 0" result="hardAlpha"/><feOffset dx="2" dy="-1"/><feGaussianBlur stdDeviation="1.5"/><feComposite in2="hardAlpha" operator="arithmetic" k2="-1" k3="1"/><feColorMatrix type="matrix" values="0 0 0 0 0.3 0 0 0 0 0.24 0 0 0 0 0.6 0 0 0 1 0"/><feBlend mode="normal" in2="shape" result="effect1_innerShadow_18590_2382"/><feColorMatrix in="SourceAlpha" type="matrix" values="0 0 0 0 0 0 0 0 0 0 0 0 0 0 0 0 0 0 127 0" result="hardAlpha"/><feOffset dy="-1"/><feGaussianBlur stdDeviation="1.5"/><feComposite in2="hardAlpha" operator="arithmetic" k2="-1" k3="1"/><feColorMatrix type="matrix" values="0 0 0 0 0.35 0 0 0 0 0.21 0 0 0 0 0.71 0 0 0 1 0"/><feBlend mode="normal" in2="effect1_innerShadow_18590_2382" result="effect2_innerShadow_18590_2382"/></filter><filter id="filter1_f_18590_2382" x="25.74" y="1.69" width="5.5" height="28.38" filterUnits="userSpaceOnUse" color-interpolation-filters="sRGB"><feFlood flood-opacity="0" result="BackgroundImageFix"/><feBlend mode="normal" in="SourceGraphic" in2="BackgroundImageFix" result="shape"/><feGaussianBlur stdDeviation="1" result="effect1_foregroundBlur_18590_2382"/></filter><filter id="filter2_f_18590_2382" x="3.02" y="1" width="27.28" height="5.5" filterUnits="userSpaceOnUse" color-interpolation-filters="sRGB"><feFlood flood-opacity="0" result="BackgroundImageFix"/><feBlend mode="normal" in="SourceGraphic" in2="BackgroundImageFix" result="shape"/><feGaussianBlur stdDeviation="1" result="effect1_foregroundBlur_18590_2382"/></filter><filter id="filter3_f_18590_2382" x="6.68" y="6.71" width="19.95" height="18.34" filterUnits="userSpaceOnUse" color-interpolation-filters="sRGB"><feFlood flood-opacity="0" result="BackgroundImageFix"/><feBlend mode="normal" in="SourceGraphic" in2="BackgroundImageFix" result="shape"/><feGaussianBlur stdDeviation="0.5" result="effect1_foregroundBlur_18590_2382"/></filter><filter id="filter4_ii_18590_2382" x="7.28" y="7.31" width="18.75" height="17.14" filterUnits="userSpaceOnUse" color-interpolation-filters="sRGB"><feFlood flood-opacity="0" result="BackgroundImageFix"/><feBlend mode="normal" in="SourceGraphic" in2="BackgroundImageFix" result="shape"/><feColorMatrix in="SourceAlpha" type="matrix" values="0 0 0 0 0 0 0 0 0 0 0 0 0 0 0 0 0 0 127 0" result="hardAlpha"/><feOffset dx="-0.4" dy="0.4"/><feGaussianBlur stdDeviation="0.38"/><feComposite in2="hardAlpha" operator="arithmetic" k2="-1" k3="1"/><feColorMatrix type="matrix" values="0 0 0 0 0.91 0 0 0 0 0.89 0 0 0 0 0.97 0 0 0 1 0"/><feBlend mode="normal" in2="shape" result="effect1_innerShadow_18590_2382"/><feColorMatrix in="SourceAlpha" type="matrix" values="0 0 0 0 0 0 0 0 0 0 0 0 0 0 0 0 0 0 127 0" result="hardAlpha"/><feOffset dx="0.4" dy="-0.4"/><feGaussianBlur stdDeviation="0.2"/><feComposite in2="hardAlpha" operator="arithmetic" k2="-1" k3="1"/><feColorMatrix type="matrix" values="0 0 0 0 1 0 0 0 0 0.99 0 0 0 0 1 0 0 0 1 0"/><feBlend mode="normal" in2="effect1_innerShadow_18590_2382" result="effect2_innerShadow_18590_2382"/></filter><linearGradient id="paint0_linear_18590_2382" x1="16.24" y1="5.51" x2="16.24" y2="38.76" gradientUnits="userSpaceOnUse"><stop stop-color="#9865EE"/><stop offset="1" stop-color="#7764C6"/></linearGradient><radialGradient id="paint1_radial_18590_2382" cx="0" cy="0" r="1" gradientUnits="userSpaceOnUse" gradientTransform="translate(27.96 4.03) rotate(136.77) scale(2.14 2.5)"><stop stop-color="#BB8DFF"/><stop offset="1" stop-color="#BB8DFF" stop-opacity="0"/></radialGradient><linearGradient id="paint2_linear_18590_2382" x1="28.99" y1="4.44" x2="28.99" y2="27.31" gradientUnits="userSpaceOnUse"><stop stop-color="#AE7EFF"/><stop offset="1" stop-color="#8777D6"/></linearGradient><linearGradient id="paint3_linear_18590_2382" x1="28.7" y1="4" x2="3.17" y2="4" gradientUnits="userSpaceOnUse"><stop stop-color="#A672FF"/><stop offset="1" stop-color="#9A6CEB"/></linearGradient></defs></svg>