<svg viewBox="0 0 32 32" fill="none" xmlns="http://www.w3.org/2000/svg"><g filter="url(#filter0_i_18_19175)"><path d="M2.55 6.64C2.55 4.86 3.43 3.24 4.14 2.68L12.87 11.24C12.5 11.74 11.68 12.28 10.7 12.73C10.16 13.06 9.61 13.69 10.03 14.75C12.4 18.85 16.42 21.68 17.45 21.9C18.19 22.06 18.83 21.76 19.26 20.7C19.74 19.74 20.29 19.07 20.62 18.78L29.45 27.53C28.93 28.22 27.51 29.45 24.89 29.31C19.68 29.2 13.37 27.42 8.29 21.9C2.92 15.84 2.55 8.89 2.55 6.64Z" fill="url(#paint0_linear_18_19175)"/><path d="M2.55 6.64C2.55 4.86 3.43 3.24 4.14 2.68L12.87 11.24C12.5 11.74 11.68 12.28 10.7 12.73C10.16 13.06 9.61 13.69 10.03 14.75C12.4 18.85 16.42 21.68 17.45 21.9C18.19 22.06 18.83 21.76 19.26 20.7C19.74 19.74 20.29 19.07 20.62 18.78L29.45 27.53C28.93 28.22 27.51 29.45 24.89 29.31C19.68 29.2 13.37 27.42 8.29 21.9C2.92 15.84 2.55 8.89 2.55 6.64Z" fill="url(#paint1_radial_18_19175)"/></g><g filter="url(#filter1_f_18_19175)"><path d="M4.48 3.19C4.5 3.16 4.53 3.14 4.56 3.12L12.54 10.94C11.65 11.51 10.59 11.84 9.46 11.84C6.28 11.84 3.7 9.26 3.7 6.08C3.7 5.02 3.98 4.04 4.48 3.19Z" fill="url(#paint2_radial_18_19175)"/></g><g filter="url(#filter2_f_18_19175)"><path d="M20.81 19.71C20.94 19.55 21.06 19.42 21.16 19.33L29.2 27.39C29.17 27.42 29.15 27.46 29.12 27.49C28.1 28.31 26.81 28.79 25.41 28.79C22.1 28.79 19.42 26.09 19.42 22.75C19.42 21.5 20.16 20.68 20.81 19.71Z" fill="url(#paint3_radial_18_19175)"/><path d="M20.81 19.71C20.94 19.55 21.06 19.42 21.16 19.33L29.2 27.39C29.17 27.42 29.15 27.46 29.12 27.49C28.1 28.31 26.81 28.79 25.41 28.79C22.1 28.79 19.42 26.09 19.42 22.75C19.42 21.5 20.16 20.68 20.81 19.71Z" fill="url(#paint4_radial_18_19175)"/><path d="M20.81 19.71C20.94 19.55 21.06 19.42 21.16 19.33L29.2 27.39C29.17 27.42 29.15 27.46 29.12 27.49C28.1 28.31 26.81 28.79 25.41 28.79C22.1 28.79 19.42 26.09 19.42 22.75C19.42 21.5 20.16 20.68 20.81 19.71Z" fill="url(#paint5_radial_18_19175)"/></g><g filter="url(#filter3_i_18_19175)"><path d="M4.53 2.02C5.22 1.34 6.32 1.34 7.01 2.02L13.47 8.48C14.15 9.17 14.15 10.27 13.47 10.96L12.99 11.44C12.83 11.59 12.58 11.59 12.42 11.44L4.05 3.07C3.9 2.91 3.9 2.66 4.05 2.5L4.53 2.02Z" fill="url(#paint6_radial_18_19175)"/><path d="M4.53 2.02C5.22 1.34 6.32 1.34 7.01 2.02L13.47 8.48C14.15 9.17 14.15 10.27 13.47 10.96L12.99 11.44C12.83 11.59 12.58 11.59 12.42 11.44L4.05 3.07C3.9 2.91 3.9 2.66 4.05 2.5L4.53 2.02Z" fill="url(#paint7_radial_18_19175)"/><path d="M4.53 2.02C5.22 1.34 6.32 1.34 7.01 2.02L13.47 8.48C14.15 9.17 14.15 10.27 13.47 10.96L12.99 11.44C12.83 11.59 12.58 11.59 12.42 11.44L4.05 3.07C3.9 2.91 3.9 2.66 4.05 2.5L4.53 2.02Z" fill="url(#paint8_radial_18_19175)"/></g><g filter="url(#filter4_i_18_19175)"><path d="M20.84 18.37C21.52 17.69 22.56 17.72 23.32 18.37C24.27 19.18 29.24 24.15 29.87 24.92C30.5 25.69 30.55 26.71 29.87 27.4L29.39 27.87C29.23 28.03 28.98 28.03 28.82 27.87L20.36 19.41C20.21 19.26 20.21 19 20.36 18.85L20.84 18.37Z" fill="url(#paint9_radial_18_19175)"/><path d="M20.84 18.37C21.52 17.69 22.56 17.72 23.32 18.37C24.27 19.18 29.24 24.15 29.87 24.92C30.5 25.69 30.55 26.71 29.87 27.4L29.39 27.87C29.23 28.03 28.98 28.03 28.82 27.87L20.36 19.41C20.21 19.26 20.21 19 20.36 18.85L20.84 18.37Z" fill="url(#paint10_radial_18_19175)"/></g><g filter="url(#filter5_f_18_19175)"><path d="M10.73 20.33C7.54 17.33 6.87 14.48 6.48 13.14H8.57C8.55 13.56 9.31 16.22 11.23 18.24C15.26 22.46 18.39 23.97 19.76 24.46C18.26 24.34 15.45 24.78 10.73 20.33Z" fill="url(#paint11_linear_18_19175)"/></g><defs><filter id="filter0_i_18_19175" x="2.55" y="2.68" width="27.9" height="26.64" filterUnits="userSpaceOnUse" color-interpolation-filters="sRGB"><feFlood flood-opacity="0" result="BackgroundImageFix"/><feBlend mode="normal" in="SourceGraphic" in2="BackgroundImageFix" result="shape"/><feColorMatrix in="SourceAlpha" type="matrix" values="0 0 0 0 0 0 0 0 0 0 0 0 0 0 0 0 0 0 127 0" result="hardAlpha"/><feOffset dx="1"/><feGaussianBlur stdDeviation="1"/><feComposite in2="hardAlpha" operator="arithmetic" k2="-1" k3="1"/><feColorMatrix type="matrix" values="0 0 0 0 0.83 0 0 0 0 0.32 0 0 0 0 0.31 0 0 0 1 0"/><feBlend mode="normal" in2="shape" result="effect1_innerShadow_18_19175"/></filter><filter id="filter1_f_18_19175" x="2.7" y="2.12" width="10.84" height="10.72" filterUnits="userSpaceOnUse" color-interpolation-filters="sRGB"><feFlood flood-opacity="0" result="BackgroundImageFix"/><feBlend mode="normal" in="SourceGraphic" in2="BackgroundImageFix" result="shape"/><feGaussianBlur stdDeviation="0.5" result="effect1_foregroundBlur_18_19175"/></filter><filter id="filter2_f_18_19175" x="18.42" y="18.33" width="11.78" height="11.46" filterUnits="userSpaceOnUse" color-interpolation-filters="sRGB"><feFlood flood-opacity="0" result="BackgroundImageFix"/><feBlend mode="normal" in="SourceGraphic" in2="BackgroundImageFix" result="shape"/><feGaussianBlur stdDeviation="0.5" result="effect1_foregroundBlur_18_19175"/></filter><filter id="filter3_i_18_19175" x="3.94" y="1.36" width="10.2" height="10.2" filterUnits="userSpaceOnUse" color-interpolation-filters="sRGB"><feFlood flood-opacity="0" result="BackgroundImageFix"/><feBlend mode="normal" in="SourceGraphic" in2="BackgroundImageFix" result="shape"/><feColorMatrix in="SourceAlpha" type="matrix" values="0 0 0 0 0 0 0 0 0 0 0 0 0 0 0 0 0 0 127 0" result="hardAlpha"/><feOffset dx="0.15" dy="-0.15"/><feGaussianBlur stdDeviation="0.4"/><feComposite in2="hardAlpha" operator="arithmetic" k2="-1" k3="1"/><feColorMatrix type="matrix" values="0 0 0 0 0.62 0 0 0 0 0.32 0 0 0 0 0.47 0 0 0 1 0"/><feBlend mode="normal" in2="shape" result="effect1_innerShadow_18_19175"/></filter><filter id="filter4_i_18_19175" x="20.24" y="17.72" width="10.27" height="10.27" filterUnits="userSpaceOnUse" color-interpolation-filters="sRGB"><feFlood flood-opacity="0" result="BackgroundImageFix"/><feBlend mode="normal" in="SourceGraphic" in2="BackgroundImageFix" result="shape"/><feColorMatrix in="SourceAlpha" type="matrix" values="0 0 0 0 0 0 0 0 0 0 0 0 0 0 0 0 0 0 127 0" result="hardAlpha"/><feOffset dx="0.15" dy="-0.15"/><feGaussianBlur stdDeviation="0.4"/><feComposite in2="hardAlpha" operator="arithmetic" k2="-1" k3="1"/><feColorMatrix type="matrix" values="0 0 0 0 0.62 0 0 0 0 0.32 0 0 0 0 0.47 0 0 0 1 0"/><feBlend mode="normal" in2="shape" result="effect1_innerShadow_18_19175"/></filter><filter id="filter5_f_18_19175" x="4.73" y="11.39" width="16.78" height="14.82" filterUnits="userSpaceOnUse" color-interpolation-filters="sRGB"><feFlood flood-opacity="0" result="BackgroundImageFix"/><feBlend mode="normal" in="SourceGraphic" in2="BackgroundImageFix" result="shape"/><feGaussianBlur stdDeviation="0.88" result="effect1_foregroundBlur_18_19175"/></filter><linearGradient id="paint0_linear_18_19175" x1="-0.64" y1="6.43" x2="22.86" y2="28.56" gradientUnits="userSpaceOnUse"><stop stop-color="#E12D3E"/><stop offset="1" stop-color="#E821A1"/></linearGradient><radialGradient id="paint1_radial_18_19175" cx="0" cy="0" r="1" gradientUnits="userSpaceOnUse" gradientTransform="translate(21.98 9.68) rotate(92.85) scale(20.09 36.38)"><stop offset="0.79" stop-color="#D43EB0" stop-opacity="0"/><stop offset="1" stop-color="#D43EB0"/></radialGradient><radialGradient id="paint2_radial_18_19175" cx="0" cy="0" r="1" gradientUnits="userSpaceOnUse" gradientTransform="translate(10.36 8.72) rotate(131.06) scale(3.41 5.68)"><stop offset="0.2" stop-color="#F52958"/><stop offset="1" stop-color="#DB2148"/></radialGradient><radialGradient id="paint3_radial_18_19175" cx="0" cy="0" r="1" gradientUnits="userSpaceOnUse" gradientTransform="translate(26.2 24.06) rotate(132.15) scale(4.61 7.1)"><stop offset="0.29" stop-color="#FB29AB"/><stop offset="1" stop-color="#FB29AB" stop-opacity="0"/></radialGradient><radialGradient id="paint4_radial_18_19175" cx="0" cy="0" r="1" gradientUnits="userSpaceOnUse" gradientTransform="translate(24.56 22.2) rotate(111.49) scale(6.36 8.75)"><stop offset="0.58" stop-color="#D82BA8" stop-opacity="0"/><stop offset="0.94" stop-color="#D531AA"/></radialGradient><radialGradient id="paint5_radial_18_19175" cx="0" cy="0" r="1" gradientUnits="userSpaceOnUse" gradientTransform="translate(20.79 19.41) rotate(114.78) scale(4.26 2.77)"><stop stop-color="#CE4B6E"/><stop offset="1" stop-color="#CE4B6E" stop-opacity="0"/></radialGradient><radialGradient id="paint6_radial_18_19175" cx="0" cy="0" r="1" gradientUnits="userSpaceOnUse" gradientTransform="translate(10.19 4.98) rotate(132.42) scale(3.87 7.62)"><stop stop-color="#C8439B"/><stop offset="1" stop-color="#B73098"/></radialGradient><radialGradient id="paint7_radial_18_19175" cx="0" cy="0" r="1" gradientUnits="userSpaceOnUse" gradientTransform="translate(10.61 6.53) rotate(137.66) scale(1.52 6.58)"><stop offset="0.14" stop-color="#DD6CB6"/><stop offset="1" stop-color="#DB69B6" stop-opacity="0"/></radialGradient><radialGradient id="paint8_radial_18_19175" cx="0" cy="0" r="1" gradientUnits="userSpaceOnUse" gradientTransform="translate(10.82 4.81) rotate(-171.23) scale(6.97 11.7)"><stop offset="0.58" stop-color="#A35479" stop-opacity="0"/><stop offset="0.96" stop-color="#A35479"/></radialGradient><radialGradient id="paint9_radial_18_19175" cx="0" cy="0" r="1" gradientUnits="userSpaceOnUse" gradientTransform="translate(26.54 21.37) rotate(132.4) scale(3.89 7.67)"><stop stop-color="#BD3995"/><stop offset="1" stop-color="#AC3BA4"/></radialGradient><radialGradient id="paint10_radial_18_19175" cx="0" cy="0" r="1" gradientUnits="userSpaceOnUse" gradientTransform="translate(26.42 22.93) rotate(137.23) scale(1.52 5.13)"><stop stop-color="#DB69B6"/><stop offset="1" stop-color="#DB69B6" stop-opacity="0"/></radialGradient><linearGradient id="paint11_linear_18_19175" x1="7.54" y1="13.05" x2="15.17" y2="22.2" gradientUnits="userSpaceOnUse"><stop stop-color="#FF6670"/><stop offset="1" stop-color="#FF5693"/></linearGradient></defs></svg>