<svg viewBox="0 0 32 32" fill="none" xmlns="http://www.w3.org/2000/svg"><g clip-path="url(#clip0_18_24636)"><g filter="url(#filter0_i_18_24636)"><path d="M28.1 4.44C25.06 1.4 20.12 1.4 17.07 4.44L13.01 8.51C12.31 9.21 11.76 10.01 11.39 10.87C12.79 10.23 14.35 10.02 15.86 10.25L19.37 6.74C21.15 4.97 24.03 4.97 25.81 6.74C27.58 8.52 27.58 11.4 25.81 13.18L21.74 17.24C19.97 19.02 17.08 19.02 15.31 17.24C14.27 16.21 13.84 14.8 14.01 13.45C13.07 13.59 12.16 14.02 11.43 14.74L10.84 15.34C11.1 16.88 11.82 18.35 13.01 19.54C16.06 22.59 20.99 22.59 24.04 19.54L28.1 15.48C31.15 12.43 31.15 7.49 28.1 4.44Z" fill="#C8BDCD"/></g><path d="M28.1 4.44C25.06 1.4 20.12 1.4 17.07 4.44L13.01 8.51C12.31 9.21 11.76 10.01 11.39 10.87C12.79 10.23 14.35 10.02 15.86 10.25L19.37 6.74C21.15 4.97 24.03 4.97 25.81 6.74C27.58 8.52 27.58 11.4 25.81 13.18L21.74 17.24C19.97 19.02 17.08 19.02 15.31 17.24C14.27 16.21 13.84 14.8 14.01 13.45C13.07 13.59 12.16 14.02 11.43 14.74L10.84 15.34C11.1 16.88 11.82 18.35 13.01 19.54C16.06 22.59 20.99 22.59 24.04 19.54L28.1 15.48C31.15 12.43 31.15 7.49 28.1 4.44Z" fill="url(#paint0_radial_18_24636)"/><path d="M28.1 4.44C25.06 1.4 20.12 1.4 17.07 4.44L13.01 8.51C12.31 9.21 11.76 10.01 11.39 10.87C12.79 10.23 14.35 10.02 15.86 10.25L19.37 6.74C21.15 4.97 24.03 4.97 25.81 6.74C27.58 8.52 27.58 11.4 25.81 13.18L21.74 17.24C19.97 19.02 17.08 19.02 15.31 17.24C14.27 16.21 13.84 14.8 14.01 13.45C13.07 13.59 12.16 14.02 11.43 14.74L10.84 15.34C11.1 16.88 11.82 18.35 13.01 19.54C16.06 22.59 20.99 22.59 24.04 19.54L28.1 15.48C31.15 12.43 31.15 7.49 28.1 4.44Z" fill="url(#paint1_radial_18_24636)"/><path d="M28.1 4.44C25.06 1.4 20.12 1.4 17.07 4.44L13.01 8.51C12.31 9.21 11.76 10.01 11.39 10.87C12.79 10.23 14.35 10.02 15.86 10.25L19.37 6.74C21.15 4.97 24.03 4.97 25.81 6.74C27.58 8.52 27.58 11.4 25.81 13.18L21.74 17.24C19.97 19.02 17.08 19.02 15.31 17.24C14.27 16.21 13.84 14.8 14.01 13.45C13.07 13.59 12.16 14.02 11.43 14.74L10.84 15.34C11.1 16.88 11.82 18.35 13.01 19.54C16.06 22.59 20.99 22.59 24.04 19.54L28.1 15.48C31.15 12.43 31.15 7.49 28.1 4.44Z" fill="url(#paint2_linear_18_24636)"/><path d="M28.1 4.44C25.06 1.4 20.12 1.4 17.07 4.44L13.01 8.51C12.31 9.21 11.76 10.01 11.39 10.87C12.79 10.23 14.35 10.02 15.86 10.25L19.37 6.74C21.15 4.97 24.03 4.97 25.81 6.74C27.58 8.52 27.58 11.4 25.81 13.18L21.74 17.24C19.97 19.02 17.08 19.02 15.31 17.24C14.27 16.21 13.84 14.8 14.01 13.45C13.07 13.59 12.16 14.02 11.43 14.74L10.84 15.34C11.1 16.88 11.82 18.35 13.01 19.54C16.06 22.59 20.99 22.59 24.04 19.54L28.1 15.48C31.15 12.43 31.15 7.49 28.1 4.44Z" fill="url(#paint3_radial_18_24636)"/><path d="M28.1 4.44C25.06 1.4 20.12 1.4 17.07 4.44L13.01 8.51C12.31 9.21 11.76 10.01 11.39 10.87C12.79 10.23 14.35 10.02 15.86 10.25L19.37 6.74C21.15 4.97 24.03 4.97 25.81 6.74C27.58 8.52 27.58 11.4 25.81 13.18L21.74 17.24C19.97 19.02 17.08 19.02 15.31 17.24C14.27 16.21 13.84 14.8 14.01 13.45C13.07 13.59 12.16 14.02 11.43 14.74L10.84 15.34C11.1 16.88 11.82 18.35 13.01 19.54C16.06 22.59 20.99 22.59 24.04 19.54L28.1 15.48C31.15 12.43 31.15 7.49 28.1 4.44Z" fill="url(#paint4_radial_18_24636)"/><g filter="url(#filter1_f_18_24636)"><rect x="23.03" y="0.84" width="12.69" height="18.64" rx="6.35" transform="rotate(45 23.03 0.84)" stroke="url(#paint5_linear_18_24636)" stroke-width="1.25"/><rect x="23.03" y="0.84" width="12.69" height="18.64" rx="6.35" transform="rotate(45 23.03 0.84)" stroke="url(#paint6_linear_18_24636)" stroke-width="1.25"/></g><g filter="url(#filter2_i_18_24636)"><path d="M15.86 10.25C17.44 10.5 18.95 11.23 20.17 12.44C21.35 13.63 22.08 15.11 22.34 16.64L21.74 17.24C21.02 17.97 20.11 18.4 19.17 18.53C19.33 17.18 18.9 15.78 17.87 14.74C16.82 13.69 15.38 13.26 14.01 13.45C13.18 13.57 12.38 13.91 11.71 14.48C11.62 14.57 11.52 14.65 11.43 14.74L7.37 18.81C5.59 20.58 5.59 23.46 7.37 25.24C9.15 27.02 12.03 27.02 13.81 25.24L17.32 21.73C18.82 21.97 20.38 21.76 21.79 21.11C21.41 21.97 20.87 22.77 20.17 23.48L16.1 27.54C13.06 30.59 8.12 30.59 5.07 27.54C2.02 24.49 2.02 19.55 5.07 16.51L9.13 12.44C9.81 11.77 10.57 11.25 11.39 10.87C12.79 10.23 14.35 10.02 15.86 10.25Z" fill="#C8BDCD"/></g><path d="M15.86 10.25C17.44 10.5 18.95 11.23 20.17 12.44C21.35 13.63 22.08 15.11 22.34 16.64L21.74 17.24C21.02 17.97 20.11 18.4 19.17 18.53C19.33 17.18 18.9 15.78 17.87 14.74C16.82 13.69 15.38 13.26 14.01 13.45C13.18 13.57 12.38 13.91 11.71 14.48C11.62 14.57 11.52 14.65 11.43 14.74L7.37 18.81C5.59 20.58 5.59 23.46 7.37 25.24C9.15 27.02 12.03 27.02 13.81 25.24L17.32 21.73C18.82 21.97 20.38 21.76 21.79 21.11C21.41 21.97 20.87 22.77 20.17 23.48L16.1 27.54C13.06 30.59 8.12 30.59 5.07 27.54C2.02 24.49 2.02 19.55 5.07 16.51L9.13 12.44C9.81 11.77 10.57 11.25 11.39 10.87C12.79 10.23 14.35 10.02 15.86 10.25Z" fill="url(#paint7_radial_18_24636)"/><path d="M15.86 10.25C17.44 10.5 18.95 11.23 20.17 12.44C21.35 13.63 22.08 15.11 22.34 16.64L21.74 17.24C21.02 17.97 20.11 18.4 19.17 18.53C19.33 17.18 18.9 15.78 17.87 14.74C16.82 13.69 15.38 13.26 14.01 13.45C13.18 13.57 12.38 13.91 11.71 14.48C11.62 14.57 11.52 14.65 11.43 14.74L7.37 18.81C5.59 20.58 5.59 23.46 7.37 25.24C9.15 27.02 12.03 27.02 13.81 25.24L17.32 21.73C18.82 21.97 20.38 21.76 21.79 21.11C21.41 21.97 20.87 22.77 20.17 23.48L16.1 27.54C13.06 30.59 8.12 30.59 5.07 27.54C2.02 24.49 2.02 19.55 5.07 16.51L9.13 12.44C9.81 11.77 10.57 11.25 11.39 10.87C12.79 10.23 14.35 10.02 15.86 10.25Z" fill="url(#paint8_radial_18_24636)"/><path d="M15.86 10.25C17.44 10.5 18.95 11.23 20.17 12.44C21.35 13.63 22.08 15.11 22.34 16.64L21.74 17.24C21.02 17.97 20.11 18.4 19.17 18.53C19.33 17.18 18.9 15.78 17.87 14.74C16.82 13.69 15.38 13.26 14.01 13.45C13.18 13.57 12.38 13.91 11.71 14.48C11.62 14.57 11.52 14.65 11.43 14.74L7.37 18.81C5.59 20.58 5.59 23.46 7.37 25.24C9.15 27.02 12.03 27.02 13.81 25.24L17.32 21.73C18.82 21.97 20.38 21.76 21.79 21.11C21.41 21.97 20.87 22.77 20.17 23.48L16.1 27.54C13.06 30.59 8.12 30.59 5.07 27.54C2.02 24.49 2.02 19.55 5.07 16.51L9.13 12.44C9.81 11.77 10.57 11.25 11.39 10.87C12.79 10.23 14.35 10.02 15.86 10.25Z" fill="url(#paint9_linear_18_24636)"/><path d="M15.86 10.25C17.44 10.5 18.95 11.23 20.17 12.44C21.35 13.63 22.08 15.11 22.34 16.64L21.74 17.24C21.02 17.97 20.11 18.4 19.17 18.53C19.33 17.18 18.9 15.78 17.87 14.74C16.82 13.69 15.38 13.26 14.01 13.45C13.18 13.57 12.38 13.91 11.71 14.48C11.62 14.57 11.52 14.65 11.43 14.74L7.37 18.81C5.59 20.58 5.59 23.46 7.37 25.24C9.15 27.02 12.03 27.02 13.81 25.24L17.32 21.73C18.82 21.97 20.38 21.76 21.79 21.11C21.41 21.97 20.87 22.77 20.17 23.48L16.1 27.54C13.06 30.59 8.12 30.59 5.07 27.54C2.02 24.49 2.02 19.55 5.07 16.51L9.13 12.44C9.81 11.77 10.57 11.25 11.39 10.87C12.79 10.23 14.35 10.02 15.86 10.25Z" fill="url(#paint10_radial_18_24636)"/><path d="M15.86 10.25C17.44 10.5 18.95 11.23 20.17 12.44C21.35 13.63 22.08 15.11 22.34 16.64L21.74 17.24C21.02 17.97 20.11 18.4 19.17 18.53C19.33 17.18 18.9 15.78 17.87 14.74C16.82 13.69 15.38 13.26 14.01 13.45C13.18 13.57 12.38 13.91 11.71 14.48C11.62 14.57 11.52 14.65 11.43 14.74L7.37 18.81C5.59 20.58 5.59 23.46 7.37 25.24C9.15 27.02 12.03 27.02 13.81 25.24L17.32 21.73C18.82 21.97 20.38 21.76 21.79 21.11C21.41 21.97 20.87 22.77 20.17 23.48L16.1 27.54C13.06 30.59 8.12 30.59 5.07 27.54C2.02 24.49 2.02 19.55 5.07 16.51L9.13 12.44C9.81 11.77 10.57 11.25 11.39 10.87C12.79 10.23 14.35 10.02 15.86 10.25Z" fill="url(#paint11_radial_18_24636)"/><g filter="url(#filter3_f_18_24636)"><rect x="14.75" y="8.83" width="12.69" height="17.86" rx="6.35" transform="rotate(45 14.75 8.83)" stroke="url(#paint12_linear_18_24636)" stroke-width="1.25"/><rect x="14.75" y="8.83" width="12.69" height="17.86" rx="6.35" transform="rotate(45 14.75 8.83)" stroke="url(#paint13_linear_18_24636)" stroke-width="1.25"/></g></g><defs><filter id="filter0_i_18_24636" x="10.84" y="1.51" width="20.2" height="20.31" filterUnits="userSpaceOnUse" color-interpolation-filters="sRGB"><feFlood flood-opacity="0" result="BackgroundImageFix"/><feBlend mode="normal" in="SourceGraphic" in2="BackgroundImageFix" result="shape"/><feColorMatrix in="SourceAlpha" type="matrix" values="0 0 0 0 0 0 0 0 0 0 0 0 0 0 0 0 0 0 127 0" result="hardAlpha"/><feOffset dx="0.65" dy="-0.65"/><feGaussianBlur stdDeviation="0.6"/><feComposite in2="hardAlpha" operator="arithmetic" k2="-1" k3="1"/><feColorMatrix type="matrix" values="0 0 0 0 0.65 0 0 0 0 0.59 0 0 0 0 0.7 0 0 0 1 0"/><feBlend mode="normal" in2="shape" result="effect1_innerShadow_18_24636"/></filter><filter id="filter1_f_18_24636" x="10.85" y="1.85" width="20.15" height="20.15" filterUnits="userSpaceOnUse" color-interpolation-filters="sRGB"><feFlood flood-opacity="0" result="BackgroundImageFix"/><feBlend mode="normal" in="SourceGraphic" in2="BackgroundImageFix" result="shape"/><feGaussianBlur stdDeviation="0.5" result="effect1_foregroundBlur_18_24636"/></filter><filter id="filter2_i_18_24636" x="2.79" y="9.51" width="20.2" height="20.31" filterUnits="userSpaceOnUse" color-interpolation-filters="sRGB"><feFlood flood-opacity="0" result="BackgroundImageFix"/><feBlend mode="normal" in="SourceGraphic" in2="BackgroundImageFix" result="shape"/><feColorMatrix in="SourceAlpha" type="matrix" values="0 0 0 0 0 0 0 0 0 0 0 0 0 0 0 0 0 0 127 0" result="hardAlpha"/><feOffset dx="0.65" dy="-0.65"/><feGaussianBlur stdDeviation="0.6"/><feComposite in2="hardAlpha" operator="arithmetic" k2="-1" k3="1"/><feColorMatrix type="matrix" values="0 0 0 0 0.65 0 0 0 0 0.59 0 0 0 0 0.7 0 0 0 1 0"/><feBlend mode="normal" in2="shape" result="effect1_innerShadow_18_24636"/></filter><filter id="filter3_f_18_24636" x="3.12" y="9.84" width="19.6" height="19.6" filterUnits="userSpaceOnUse" color-interpolation-filters="sRGB"><feFlood flood-opacity="0" result="BackgroundImageFix"/><feBlend mode="normal" in="SourceGraphic" in2="BackgroundImageFix" result="shape"/><feGaussianBlur stdDeviation="0.5" result="effect1_foregroundBlur_18_24636"/></filter><radialGradient id="paint0_radial_18_24636" cx="0" cy="0" r="1" gradientUnits="userSpaceOnUse" gradientTransform="translate(19.32 9.17) rotate(89.32) scale(13.78 14.02)"><stop offset="0.77" stop-color="#A08FAF" stop-opacity="0"/><stop offset="0.97" stop-color="#8C72A5"/></radialGradient><radialGradient id="paint1_radial_18_24636" cx="0" cy="0" r="1" gradientUnits="userSpaceOnUse" gradientTransform="translate(14.57 10.79) rotate(-71.29) scale(2.66 7.53)"><stop stop-color="#CDC4D3"/><stop offset="1" stop-color="#CDC4D3" stop-opacity="0"/></radialGradient><linearGradient id="paint2_linear_18_24636" x1="12.25" y1="8.39" x2="13.75" y2="9.94" gradientUnits="userSpaceOnUse"><stop offset="0.3" stop-color="#DED6E0"/><stop offset="1" stop-color="#DED6E0" stop-opacity="0"/></linearGradient><radialGradient id="paint3_radial_18_24636" cx="0" cy="0" r="1" gradientUnits="userSpaceOnUse" gradientTransform="translate(23.38 7.87) rotate(-77.99) scale(3.91 5.04)"><stop stop-color="#9378A9"/><stop offset="1" stop-color="#AB9FB5" stop-opacity="0"/></radialGradient><radialGradient id="paint4_radial_18_24636" cx="0" cy="0" r="1" gradientUnits="userSpaceOnUse" gradientTransform="translate(12.09 14.04) rotate(71.29) scale(2.66 6.77)"><stop offset="0.16" stop-color="#9789A3"/><stop offset="1" stop-color="#9789A3" stop-opacity="0"/></radialGradient><linearGradient id="paint5_linear_18_24636" x1="34.8" y1="-1.09" x2="30.38" y2="6.69" gradientUnits="userSpaceOnUse"><stop offset="0.27" stop-color="#F1E9F5"/><stop offset="1" stop-color="#F1E9F5" stop-opacity="0"/></linearGradient><linearGradient id="paint6_linear_18_24636" x1="23.33" y1="17.08" x2="27.87" y2="14.58" gradientUnits="userSpaceOnUse"><stop offset="0.14" stop-color="#C9BDD2"/><stop offset="1" stop-color="#F1E9F5" stop-opacity="0"/><stop offset="1" stop-color="#C9BDD2" stop-opacity="0"/></linearGradient><radialGradient id="paint7_radial_18_24636" cx="0" cy="0" r="1" gradientUnits="userSpaceOnUse" gradientTransform="translate(11.27 17.17) rotate(89.32) scale(13.78 14.02)"><stop offset="0.77" stop-color="#A08FAF" stop-opacity="0"/><stop offset="0.97" stop-color="#8C72A5"/></radialGradient><radialGradient id="paint8_radial_18_24636" cx="0" cy="0" r="1" gradientUnits="userSpaceOnUse" gradientTransform="translate(6.52 18.79) rotate(-71.29) scale(2.66 7.53)"><stop stop-color="#CDC4D3"/><stop offset="1" stop-color="#CDC4D3" stop-opacity="0"/></radialGradient><linearGradient id="paint9_linear_18_24636" x1="4.2" y1="16.39" x2="5.7" y2="17.94" gradientUnits="userSpaceOnUse"><stop stop-color="#DED6E0"/><stop offset="1" stop-color="#DED6E0" stop-opacity="0"/></linearGradient><radialGradient id="paint10_radial_18_24636" cx="0" cy="0" r="1" gradientUnits="userSpaceOnUse" gradientTransform="translate(15.34 15.87) rotate(-77.99) scale(3.91 5.04)"><stop offset="0.37" stop-color="#9378A9"/><stop offset="1" stop-color="#AB9FB5" stop-opacity="0"/></radialGradient><radialGradient id="paint11_radial_18_24636" cx="0" cy="0" r="1" gradientUnits="userSpaceOnUse" gradientTransform="translate(21.52 19.04) rotate(140.84) scale(6.21 3.62)"><stop offset="0.25" stop-color="#92889C"/><stop offset="1" stop-color="#92889C" stop-opacity="0"/></radialGradient><linearGradient id="paint12_linear_18_24636" x1="18.68" y1="7.25" x2="21.72" y2="14.47" gradientUnits="userSpaceOnUse"><stop stop-color="#F1E9F5"/><stop offset="1" stop-color="#F1E9F5" stop-opacity="0"/></linearGradient><linearGradient id="paint13_linear_18_24636" x1="21.92" y1="26.75" x2="19.81" y2="21.97" gradientUnits="userSpaceOnUse"><stop offset="0.14" stop-color="#E3D8EA"/><stop offset="1" stop-color="#F1E9F5" stop-opacity="0"/><stop offset="1" stop-color="#E3D8EA" stop-opacity="0"/></linearGradient><clipPath id="clip0_18_24636"><rect width="32" height="32" fill="white"/></clipPath></defs></svg>