<svg xmlns="http://www.w3.org/2000/svg" viewBox="0 0 48 48" width="48" height="48" role="img" aria-label="Borrar"><defs><linearGradient id="i1f5d1_a" x1="0" y1="0" x2="0" y2="1"><stop offset="0" stop-color="#D9DFEA"/><stop offset="1" stop-color="#8A93A6"/></linearGradient><linearGradient id="i1f5d1_b" x1="0" y1="0" x2="0" y2="1"><stop offset="0" stop-color="#FF7A72"/><stop offset="1" stop-color="#E8453C"/></linearGradient></defs><path d="M18 3h12a3 3 0 0 1 3 3v3H15V6a3 3 0 0 1 3-3z" fill="url(#i1f5d1_b)"/><rect x="5" y="9" width="38" height="7" rx="3.5" fill="url(#i1f5d1_b)"/><path d="M9.5 18h29l-2.3 24.2a3 3 0 0 1-3 2.8H14.8a3 3 0 0 1-3-2.8z" fill="url(#i1f5d1_a)"/><path d="M18.5 24v14M24 24v14M29.5 24v14" stroke="#FFFFFF" stroke-width="3" stroke-linecap="round" opacity=".75"/></svg>