<svg xmlns="http://www.w3.org/2000/svg" viewBox="0 0 48 48" width="48" height="48" role="img" aria-label="Repartidores"><defs><linearGradient id="i1f9cd_a" x1="0" y1="0" x2="0" y2="1"><stop offset="0" stop-color="#3FD2C0"/><stop offset="1" stop-color="#12A594"/></linearGradient><linearGradient id="i1f9cd_b" x1="0" y1="0" x2="0" y2="1"><stop offset="0" stop-color="#F7C99A"/><stop offset="1" stop-color="#E5A56C"/></linearGradient></defs><circle cx="24" cy="10" r="7.5" fill="url(#i1f9cd_b)"/><path d="M24 19.5c5.5 0 9.5 3.6 9.5 8.8V32a2.5 2.5 0 0 1-2.5 2.5h-.6l-.9 8.2a2.6 2.6 0 0 1-2.6 2.3h-1.2a1.4 1.4 0 0 1-1.4-1.3l-.3-7.7-.3 7.7a1.4 1.4 0 0 1-1.4 1.3h-1.2a2.6 2.6 0 0 1-2.6-2.3l-.9-8.2H17a2.5 2.5 0 0 1-2.5-2.5v-3.7c0-5.2 4-8.8 9.5-8.8z" fill="url(#i1f9cd_a)"/></svg>