<svg viewBox="0 0 32 32" fill="none" xmlns="http://www.w3.org/2000/svg"><path d="M23.04 2.51C23.62 1.92 24.57 1.92 25.16 2.51L29.52 6.87C30.11 7.45 30.11 8.4 29.52 8.99L9.46 29.05L2.98 22.56L23.04 2.51Z" fill="url(#paint0_radial_18_22247)"/><path d="M23.04 2.51C23.62 1.92 24.57 1.92 25.16 2.51L29.52 6.87C30.11 7.45 30.11 8.4 29.52 8.99L9.46 29.05L2.98 22.56L23.04 2.51Z" fill="url(#paint1_linear_18_22247)"/><path d="M23.04 2.51C23.62 1.92 24.57 1.92 25.16 2.51L29.52 6.87C30.11 7.45 30.11 8.4 29.52 8.99L9.46 29.05L2.98 22.56L23.04 2.51Z" fill="url(#paint2_linear_18_22247)"/><path d="M23.04 2.51C23.62 1.92 24.57 1.92 25.16 2.51L29.52 6.87C30.11 7.45 30.11 8.4 29.52 8.99L9.46 29.05L2.98 22.56L23.04 2.51Z" fill="url(#paint3_radial_18_22247)"/><path d="M2.03 29.78C2.02 29.91 2.13 30.01 2.25 30L8.79 29.37C8.98 29.35 9.16 29.28 9.31 29.17L9.46 29.05L2.98 22.56L2.88 22.68C2.75 22.84 2.67 23.03 2.65 23.23L2.03 29.78Z" fill="url(#paint4_linear_18_22247)"/><path d="M2.03 29.78C2.02 29.91 2.13 30.01 2.25 30L8.79 29.37C8.98 29.35 9.16 29.28 9.31 29.17L9.46 29.05L2.98 22.56L2.88 22.68C2.75 22.84 2.67 23.03 2.65 23.23L2.03 29.78Z" fill="url(#paint5_linear_18_22247)"/><path d="M2.03 29.78C2.02 29.91 2.13 30.01 2.25 30L8.79 29.37C8.98 29.35 9.16 29.28 9.31 29.17L9.46 29.05L2.98 22.56L2.88 22.68C2.75 22.84 2.67 23.03 2.65 23.23L2.03 29.78Z" fill="url(#paint6_linear_18_22247)"/><path d="M26.34 12.17L29.52 8.99C30.11 8.4 30.11 7.45 29.52 6.87L25.16 2.51C24.57 1.92 23.62 1.92 23.04 2.51L19.86 5.69L26.34 12.17Z" fill="url(#paint7_linear_18_22247)"/><path d="M26.34 12.17L29.52 8.99C30.11 8.4 30.11 7.45 29.52 6.87L25.16 2.51C24.57 1.92 23.62 1.92 23.04 2.51L19.86 5.69L26.34 12.17Z" fill="url(#paint8_linear_18_22247)"/><path d="M26.34 12.17L29.52 8.99C30.11 8.4 30.11 7.45 29.52 6.87L25.16 2.51C24.57 1.92 23.62 1.92 23.04 2.51L19.86 5.69L26.34 12.17Z" fill="url(#paint9_radial_18_22247)"/><path d="M16.67 8.88L19.86 5.69L26.34 12.17L23.15 15.36L16.67 8.88Z" fill="url(#paint10_linear_18_22247)"/><path d="M16.67 8.88L19.86 5.69L26.34 12.17L23.15 15.36L16.67 8.88Z" fill="url(#paint11_linear_18_22247)"/><path d="M2.25 30C2.13 30.01 2.02 29.91 2.03 29.78L2.25 27.48L4.55 29.78L2.25 30Z" fill="url(#paint12_linear_18_22247)"/><defs><radialGradient id="paint0_radial_18_22247" cx="0" cy="0" r="1" gradientUnits="userSpaceOnUse" gradientTransform="translate(6.2 26) rotate(-45.64) scale(19.67 12.2)"><stop stop-color="#FF9130"/><stop offset="1" stop-color="#F3633D"/></radialGradient><linearGradient id="paint1_linear_18_22247" x1="10.14" y1="14.88" x2="11.7" y2="16.38" gradientUnits="userSpaceOnUse"><stop stop-color="#EE9B6A"/><stop offset="1" stop-color="#EE9B6A" stop-opacity="0"/></linearGradient><linearGradient id="paint2_linear_18_22247" x1="20.64" y1="18.5" x2="18.76" y2="16.94" gradientUnits="userSpaceOnUse"><stop stop-color="#E66A62"/><stop offset="1" stop-color="#E66A62" stop-opacity="0"/></linearGradient><radialGradient id="paint3_radial_18_22247" cx="0" cy="0" r="1" gradientUnits="userSpaceOnUse" gradientTransform="translate(5.95 25.81) rotate(-44.86) scale(18.16 4.06)"><stop stop-color="#FF994D"/><stop offset="1" stop-color="#FF994D" stop-opacity="0"/></radialGradient><linearGradient id="paint4_linear_18_22247" x1="3.89" y1="26.09" x2="6.51" y2="30.22" gradientUnits="userSpaceOnUse"><stop stop-color="#D8A587"/><stop offset="1" stop-color="#CE7A98"/></linearGradient><linearGradient id="paint5_linear_18_22247" x1="6.98" y1="26.28" x2="6.46" y2="26.81" gradientUnits="userSpaceOnUse"><stop offset="0.21" stop-color="#FFC09F"/><stop offset="1" stop-color="#FCB196" stop-opacity="0"/></linearGradient><linearGradient id="paint6_linear_18_22247" x1="1.51" y1="25.94" x2="3.64" y2="26.12" gradientUnits="userSpaceOnUse"><stop stop-color="#DEBCA3"/><stop offset="1" stop-color="#DEBCA3" stop-opacity="0"/></linearGradient><linearGradient id="paint7_linear_18_22247" x1="28.07" y1="4.94" x2="23.95" y2="9" gradientUnits="userSpaceOnUse"><stop stop-color="#FF6153"/><stop offset="1" stop-color="#FF6154"/></linearGradient><linearGradient id="paint8_linear_18_22247" x1="20.76" y1="4.56" x2="24.01" y2="7.56" gradientUnits="userSpaceOnUse"><stop stop-color="#F1553E"/><stop offset="1" stop-color="#F1553E" stop-opacity="0"/></linearGradient><radialGradient id="paint9_radial_18_22247" cx="0" cy="0" r="1" gradientUnits="userSpaceOnUse" gradientTransform="translate(27.23 5.88) rotate(135) scale(1.37 3.11)"><stop offset="0.18" stop-color="#FF786D"/><stop offset="1" stop-color="#FF786D" stop-opacity="0"/></radialGradient><linearGradient id="paint10_linear_18_22247" x1="18.32" y1="7.38" x2="22.45" y2="11.12" gradientUnits="userSpaceOnUse"><stop stop-color="#C5C4CB"/><stop offset="1" stop-color="#E8DEFA"/></linearGradient><linearGradient id="paint11_linear_18_22247" x1="24.82" y1="14.38" x2="22.51" y2="12.12" gradientUnits="userSpaceOnUse"><stop stop-color="#C9B9E0"/><stop offset="1" stop-color="#C9B9E0" stop-opacity="0"/></linearGradient><linearGradient id="paint12_linear_18_22247" x1="2.23" y1="28.53" x2="3.29" y2="30" gradientUnits="userSpaceOnUse"><stop stop-color="#461E49"/><stop offset="1" stop-color="#450F51"/></linearGradient></defs></svg>