<svg viewBox="0 0 32 32" fill="none" xmlns="http://www.w3.org/2000/svg"><g filter="url(#filter0_ii_18590_694)"><rect x="2.07" y="2.06" width="27.88" height="27.88" rx="3.6" fill="url(#paint0_linear_18590_694)"/><rect x="2.07" y="2.06" width="27.88" height="27.88" rx="3.6" fill="url(#paint1_radial_18590_694)"/></g><g filter="url(#filter1_f_18590_694)"><path d="M28.25 4.56V27.44" stroke="url(#paint2_linear_18590_694)" stroke-width="1.5" stroke-linecap="round"/></g><g filter="url(#filter2_f_18590_694)"><path d="M5.53 3.88H27.31" stroke="url(#paint3_linear_18590_694)" stroke-width="1.5" stroke-linecap="round"/></g><g filter="url(#filter3_f_18590_694)"><path d="M15.31 7.22C15.69 6.85 16.31 6.85 16.69 7.22L22.01 12.34C22.65 12.96 22.21 14.06 21.31 14.06L18.25 14.06C18.11 14.06 18 14.17 18 14.31L18 24.06C18 24.61 17.55 25.06 17 25.06H15C14.45 25.06 14 24.61 14 24.06L14 14.31C14 14.17 13.89 14.06 13.75 14.06L10.69 14.06C9.79 14.06 9.34 12.96 9.99 12.34L15.31 7.22Z" fill="#579FFF"/></g><g filter="url(#filter4_ii_18590_694)"><path d="M15.31 7.22C15.69 6.85 16.31 6.85 16.69 7.22L22.01 12.34C22.65 12.96 22.21 14.06 21.31 14.06L18.25 14.06C18.11 14.06 18 14.17 18 14.31L18 24.06C18 24.61 17.55 25.06 17 25.06H15C14.45 25.06 14 24.61 14 24.06L14 14.31C14 14.17 13.89 14.06 13.75 14.06L10.69 14.06C9.79 14.06 9.34 12.96 9.99 12.34L15.31 7.22Z" fill="#FCF2FF"/></g><defs><filter id="filter0_ii_18590_694" x="2.07" y="1.06" width="28.88" height="28.88" filterUnits="userSpaceOnUse" color-interpolation-filters="sRGB"><feFlood flood-opacity="0" result="BackgroundImageFix"/><feBlend mode="normal" in="SourceGraphic" in2="BackgroundImageFix" result="shape"/><feColorMatrix in="SourceAlpha" type="matrix" values="0 0 0 0 0 0 0 0 0 0 0 0 0 0 0 0 0 0 127 0" result="hardAlpha"/><feOffset dx="1" dy="-1"/><feGaussianBlur stdDeviation="1.5"/><feComposite in2="hardAlpha" operator="arithmetic" k2="-1" k3="1"/><feColorMatrix type="matrix" values="0 0 0 0 0.19 0 0 0 0 0.47 0 0 0 0 0.84 0 0 0 1 0"/><feBlend mode="normal" in2="shape" result="effect1_innerShadow_18590_694"/><feColorMatrix in="SourceAlpha" type="matrix" values="0 0 0 0 0 0 0 0 0 0 0 0 0 0 0 0 0 0 127 0" result="hardAlpha"/><feOffset dy="-1"/><feGaussianBlur stdDeviation="1.5"/><feComposite in2="hardAlpha" operator="arithmetic" k2="-1" k3="1"/><feColorMatrix type="matrix" values="0 0 0 0 0.27 0 0 0 0 0.35 0 0 0 0 0.8 0 0 0 1 0"/><feBlend mode="normal" in2="effect1_innerShadow_18590_694" result="effect2_innerShadow_18590_694"/></filter><filter id="filter1_f_18590_694" x="25.5" y="1.81" width="5.5" height="28.38" filterUnits="userSpaceOnUse" color-interpolation-filters="sRGB"><feFlood flood-opacity="0" result="BackgroundImageFix"/><feBlend mode="normal" in="SourceGraphic" in2="BackgroundImageFix" result="shape"/><feGaussianBlur stdDeviation="1" result="effect1_foregroundBlur_18590_694"/></filter><filter id="filter2_f_18590_694" x="2.78" y="1.12" width="27.28" height="5.5" filterUnits="userSpaceOnUse" color-interpolation-filters="sRGB"><feFlood flood-opacity="0" result="BackgroundImageFix"/><feBlend mode="normal" in="SourceGraphic" in2="BackgroundImageFix" result="shape"/><feGaussianBlur stdDeviation="1" result="effect1_foregroundBlur_18590_694"/></filter><filter id="filter3_f_18590_694" x="8.68" y="5.94" width="14.63" height="20.11" filterUnits="userSpaceOnUse" color-interpolation-filters="sRGB"><feFlood flood-opacity="0" result="BackgroundImageFix"/><feBlend mode="normal" in="SourceGraphic" in2="BackgroundImageFix" result="shape"/><feGaussianBlur stdDeviation="0.5" result="effect1_foregroundBlur_18590_694"/></filter><filter id="filter4_ii_18590_694" x="9.08" y="6.54" width="13.63" height="19.11" filterUnits="userSpaceOnUse" color-interpolation-filters="sRGB"><feFlood flood-opacity="0" result="BackgroundImageFix"/><feBlend mode="normal" in="SourceGraphic" in2="BackgroundImageFix" result="shape"/><feColorMatrix in="SourceAlpha" type="matrix" values="0 0 0 0 0 0 0 0 0 0 0 0 0 0 0 0 0 0 127 0" result="hardAlpha"/><feOffset dx="-0.6" dy="0.6"/><feGaussianBlur stdDeviation="0.5"/><feComposite in2="hardAlpha" operator="arithmetic" k2="-1" k3="1"/><feColorMatrix type="matrix" values="0 0 0 0 0.9 0 0 0 0 0.85 0 0 0 0 0.98 0 0 0 1 0"/><feBlend mode="normal" in2="shape" result="effect1_innerShadow_18590_694"/><feColorMatrix in="SourceAlpha" type="matrix" values="0 0 0 0 0 0 0 0 0 0 0 0 0 0 0 0 0 0 127 0" result="hardAlpha"/><feOffset dx="0.4" dy="-0.4"/><feGaussianBlur stdDeviation="0.2"/><feComposite in2="hardAlpha" operator="arithmetic" k2="-1" k3="1"/><feColorMatrix type="matrix" values="0 0 0 0 1 0 0 0 0 0.99 0 0 0 0 1 0 0 0 1 0"/><feBlend mode="normal" in2="effect1_innerShadow_18590_694" result="effect2_innerShadow_18590_694"/></filter><linearGradient id="paint0_linear_18590_694" x1="16" y1="5.64" x2="16" y2="38.89" gradientUnits="userSpaceOnUse"><stop stop-color="#5CB7FF"/><stop offset="1" stop-color="#4878DD"/></linearGradient><radialGradient id="paint1_radial_18590_694" cx="0" cy="0" r="1" gradientUnits="userSpaceOnUse" gradientTransform="translate(27.72 4.16) rotate(136.77) scale(2.14 2.5)"><stop stop-color="#7BD7FF"/><stop offset="1" stop-color="#7BD7FF" stop-opacity="0"/></radialGradient><linearGradient id="paint2_linear_18590_694" x1="28.75" y1="4.56" x2="28.75" y2="27.44" gradientUnits="userSpaceOnUse"><stop stop-color="#7FD9FF"/><stop offset="1" stop-color="#639DF4"/></linearGradient><linearGradient id="paint3_linear_18590_694" x1="28.47" y1="4.13" x2="2.94" y2="4.13" gradientUnits="userSpaceOnUse"><stop stop-color="#7DD8FF"/><stop offset="1" stop-color="#5DB6FF"/></linearGradient></defs></svg>